PathFileType	4	(X/Y/Z)	Patient4_TMGait_0pt4_02_left_19.trc.trc
DataRate	CameraRate	NumFrames	NumMarkers	Units	OrigDataRate	OrigDataStartFrame	OrigNumFrames
76.086956521739	76.086956521739	5	33	mm	76.086956521739	124	       141
Frame#	Time	Sacral			L.Shoulder			Chest			R.Shoulder			Neck			R.ASIS			L.ASIS			R.Thigh.Superior			R.Thigh.Lateral			R.Thigh.Inferior			R.Patella			L.Thigh.Superior			L.Thigh.Lateral			L.Thigh.Inferior			L.Patella			L.Shank.Superior			L.Shank.Lateral			L.Shank.Inferior			R.Shank.Superior			R.Shank.Lateral			R.Shank.Inferior			R.Heel			R.Midfoot.Superior			R.Midfoot.Lateral			R.Toe			L.Heel			L.Midfoot.Lateral			L.Midfoot.Superior			L.Toe			L.Elbow			L.Wrist			R.Elbow			R.Wrist			
		X1	Y1	Z1	X2	Y2	Z2	X3	Y3	Z3	X4	Y4	Z4	X5	Y5	Z5	X6	Y6	Z6	X7	Y7	Z7	X8	Y8	Z8	X9	Y9	Z9	X10	Y10	Z10	X11	Y11	Z11	X12	Y12	Z12	X13	Y13	Z13	X14	Y14	Z14	X15	Y15	Z15	X16	Y16	Z16	X17	Y17	Z17	X18	Y18	Z18	X19	Y19	Z19	X20	Y20	Z20	X21	Y21	Z21	X22	Y22	Z22	X23	Y23	Z23	X24	Y24	Z24	X25	Y25	Z25	X26	Y26	Z26	X27	Y27	Z27	X28	Y28	Z28	X29	Y29	Z29	X30	Y30	Z30	X31	Y31	Z31	X32	Y32	Z32	X33	Y33	Z33	

124	27.096571428571	883.861614084778	996.784390251433	533.246261544462	1024.500597287243	1428.212422232060	332.749918487433	1151.763278917178	1363.034856043220	476.281495444517	1093.772691378608	1432.464285657248	661.665083861617	1030.037283346600	1488.542934387720	491.210345217162	1124.245792435161	937.722171241494	624.597774342841	1080.851847871334	954.835355774178	351.279743287132	1126.785771378910	725.777237502559	595.644528078527	1031.648914013809	627.400253599712	664.999598880585	1087.789815912596	565.324698008859	580.154634273090	1070.828096387176	479.592765167621	585.668536754011	1158.696606266833	766.586388539125	377.647942561800	1101.739056967477	638.637570362183	302.514805110211	1207.020730223861	578.874971374519	357.374141687222	1230.477947161287	512.280600238582	353.792105361691	1209.804246011908	439.110794774865	343.561316967799	1132.975796480649	314.707733736975	294.037329389646	1214.769100586998	209.203127553723	344.747551811305	1033.394048033052	393.517584310983	595.587182619450	954.244687937686	298.728946011389	663.728051706345	978.566605151826	200.382281305045	596.839716454461	828.659906535398	42.644754994126	572.750793892918	1000.523150854935	96.088655000594	603.308428413596	913.651804891068	36.594443428340	645.707476369953	1121.510564219144	44.108081798172	628.256196062279	1119.608460093898	39.582990954130	383.295218992940	1190.959005722400	39.896936321373	300.735272277544	1269.279775488115	108.600904741376	322.615776231431	1398.943070819391	67.725495911656	290.484527290869	903.735242174012	1092.184868770845	246.530611650551	895.708086395640	831.504750521416	235.157652945633	1222.606825850678	1120.604957547146	783.701132456146	1432.365055967829	1210.166857353250	682.743247669058	
125	27.109714285714	884.996262567062	995.915671494872	530.489671342652	1024.682535156022	1427.191323126673	329.253755585851	1152.055668604053	1362.626567395349	472.969005497340	1093.639530219190	1432.174966643184	658.202998094207	1029.952509438577	1487.822940706333	487.610156013262	1125.515643108211	937.005945247915	621.937790143373	1082.125404335349	953.950423677369	348.852890681924	1127.914973008019	724.706648992614	593.561250465508	1032.210723038110	626.583088847133	662.729072676095	1088.210275240365	564.047921558590	578.133170181349	1070.713513840815	477.813558096491	583.670431725367	1159.516876978090	764.315059736993	375.940969595078	1100.837904233338	636.855160827441	301.941640278462	1205.726059623416	576.703142937868	357.327545301667	1227.863983061965	509.266890321744	354.328005395407	1206.487356748241	435.980584799076	343.877375186424	1127.872897746235	312.479556896174	294.802910110331	1207.875521648186	205.957320075635	346.099540193584	1032.100909698308	392.308328152073	593.933102445461	951.939809012604	298.703295747966	662.576772340682	974.745968545904	199.807326405566	596.115040763503	823.435308702968	42.899287276160	572.846540485417	995.390561174602	96.015703901613	603.199003866144	908.442773123468	36.602104878727	645.692522188685	1116.340168697647	43.686110146150	628.309379581864	1109.464500057439	38.771045333743	384.710470012705	1181.062281249072	37.960882690522	302.285303658357	1260.943718208905	104.474280970193	324.988016659351	1390.066536960143	60.598089696445	293.071160783440	905.853720872694	1090.407427501734	242.766708514949	901.021119487612	829.522433490715	231.074784925844	1223.609253097132	1121.004593328960	780.747843898932	1429.934819114062	1215.646459833185	677.931040573294	
126	27.122857142857	886.098119259396	995.174567616543	527.676968254891	1025.018169930325	1426.266827532240	325.658771991775	1152.425081893934	1362.314459884766	469.629051204997	1093.542972324227	1432.082169939820	654.664057153800	1029.952729190645	1487.254450022287	483.884753107212	1126.737019758628	936.385560405037	619.170589112076	1083.301438857216	953.328832260158	346.353336448886	1129.136649567966	723.768893298241	591.234039872091	1033.003850572201	625.821793733597	660.273367353981	1088.896749568573	562.847685683829	575.928011474944	1070.960320275726	476.009623635779	581.559466020850	1160.393998892221	762.445462616747	374.035873031565	1100.218280197395	635.539540431782	301.043722641171	1204.726713625715	575.039279865411	357.003942848598	1225.528669560659	506.824139630686	354.577848515752	1203.656725067301	433.459248425531	343.869933244861	1123.674274593653	310.756464378685	295.005880090256	1201.934063324362	203.393976267001	347.002409794345	1031.049717869024	391.153254976013	592.166957339673	949.816066901141	298.809928912786	661.330732995262	971.059234276596	199.339811278881	595.357093952531	818.234595459070	43.363154040675	572.976478291049	990.353981926484	95.996862679423	603.117368358882	903.281724674175	36.692580137361	645.672869586523	1111.232032635362	43.192041035146	628.371762866832	1100.687656502199	38.265037506557	385.630130638699	1172.495375010238	36.637383269483	303.327658291700	1253.590332440478	101.326184638758	326.823653254950	1382.291712404783	55.063789947829	295.080721185442	908.638063235405	1088.551394273660	238.697270350369	907.311510072796	827.475459189484	226.649214616642	1224.242596078317	1121.364403236167	777.773994238685	1427.690165426819	1220.048495589031	673.383051126833	
127	27.136000000000	887.141868072540	994.597503330586	524.818546316512	1025.456946149338	1425.484553122221	322.013114510254	1152.848272598968	1362.117873130694	466.275815725762	1093.512313055593	1432.207215743214	651.075780903272	1030.027780660229	1486.867728432855	480.078710334432	1127.871434212347	935.897168243573	616.277014090761	1084.332828980052	953.007783559686	343.723401330345	1130.371925967262	723.014819510564	588.658184827335	1033.977877318902	625.168124984105	657.659108639427	1089.822595171781	561.773366390475	573.576138723252	1071.578008938882	474.228047379633	579.415573422110	1161.355120126819	761.146285657358	371.911340099316	1100.033793550967	634.753053562354	299.790482172717	1204.139366918950	573.942958743388	356.340742903304	1223.623728851269	505.007285002037	354.473675857167	1201.427637096783	431.566239984259	343.537871443060	1120.442895575108	309.576121010034	294.636841539011	1196.944155900611	201.512767315221	347.481760142460	1030.242967399239	390.095696134162	590.344711852866	947.860417058180	299.092957247315	660.017625544006	967.522126945481	199.028449418891	594.594646618783	813.066691600151	44.116604202566	573.143631079645	985.435729123397	96.050657904386	603.077741002647	898.176621111903	36.912681052092	645.657076493241	1106.188166217607	42.632280126992	628.443499108313	1093.243248220161	38.022995047882	386.119849047629	1165.207861725723	35.861347174290	303.913547375054	1247.167654930099	99.150148364813	328.105319716863	1375.567082648180	51.143980484684	296.473304364058	912.073533105113	1086.673212075805	234.352199632776	914.568824875885	825.440403095608	221.930869597538	1224.468975587268	1121.682857434408	774.775719833568	1425.689936926448	1223.335459171597	669.091640150010	
128	27.149142857143	888.114202177061	994.200458338000	521.896365897818	1025.940006323863	1424.878286387071	318.356701195391	1153.292991634204	1362.050669394503	462.918200006416	1093.550865609284	1432.549528251293	647.461872686770	1030.151915850230	1486.677221738807	476.230558100798	1128.890988721041	935.570623243339	613.242288092449	1085.212251230908	952.991478864223	340.907232647294	1131.561742558557	722.485953412407	585.859773289393	1035.087992821628	624.668006561533	654.923114819419	1090.983534967163	560.870507461154	571.134314271505	1072.595499473198	472.512392143488	577.336110073283	1162.431217638715	760.502520414386	369.549043781165	1100.355147000577	634.475826896559	298.187543033302	1204.005811577866	573.375218392475	355.293643868138	1222.220966844395	503.776846279338	353.989107375519	1199.818275771789	430.237393702565	342.917312530878	1118.108807676686	308.903221512495	293.755611496831	1192.785902297859	200.237077106879	347.609469958954	1029.704407121571	389.171096466068	588.533282812497	946.074408718468	299.595216889624	658.670154522720	964.161064433656	198.920182398249	593.860844292628	807.947691648762	45.249990519870	573.346731446719	980.660574876069	96.194590387944	603.092772490479	893.135381923139	37.318698482367	645.654068548611	1101.203642975914	42.017640600477	628.523954914783	1086.942881977221	37.981839481231	386.270504224550	1159.008712478672	35.523244169995	304.128161755767	1241.518918296496	97.837713703562	328.881434421809	1369.725594540170	48.684016157402	297.292013386808	916.124462127752	1084.827076906514	229.759144787037	922.795911377221	823.497245036078	216.975542322042	1224.253491612239	1121.954606861935	771.752277970415	1423.968844837622	1225.465152985226	665.050404632725	
